<?xml version="1.0" standalone="no"?>
<!DOCTYPE svg PUBLIC "-//W3C//DTD SVG 20010904//EN"
 "http://www.w3.org/TR/2001/REC-SVG-20010904/DTD/svg10.dtd">
<svg version="1.0" xmlns="http://www.w3.org/2000/svg"
 width="1000.000000pt" height="1000.000000pt" viewBox="0 0 1000.000000 1000.000000"
 preserveAspectRatio="xMidYMid meet">

<g transform="translate(0.000000,1000.000000) scale(0.100000,-0.100000)"
fill="#8e7206" stroke="none">
<path d="M4903 8466 c-80 -49 -104 -66 -468 -326 -143 -103 -327 -235 -410
-294 -82 -59 -204 -146 -269 -194 -66 -48 -164 -118 -217 -157 -395 -284 -593
-436 -603 -461 -3 -9 -6 -590 -6 -1291 l0 -1276 39 -37 c22 -20 66 -54 98 -75
55 -38 306 -216 556 -395 65 -47 185 -132 267 -190 81 -58 199 -141 261 -186
63 -44 142 -101 176 -125 35 -24 129 -92 210 -150 193 -138 346 -247 394 -281
58 -41 84 -37 175 30 43 31 89 64 101 72 131 91 199 139 318 225 77 55 196
141 265 190 69 48 148 105 175 125 40 30 270 192 385 273 14 9 64 45 111 80
48 34 140 100 205 147 66 46 171 121 234 166 63 45 126 94 139 108 l25 26 0
1282 c1 840 -2 1285 -9 1293 -29 35 -843 631 -1410 1033 -66 47 -138 98 -160
114 -22 15 -76 54 -120 85 -44 31 -98 69 -120 85 -156 111 -219 148 -253 148
-10 0 -50 -20 -89 -44z m372 -639 c22 -15 109 -76 194 -135 84 -59 174 -122
200 -140 25 -18 78 -55 116 -82 117 -83 152 -108 365 -263 370 -270 502 -368
511 -380 3 -4 4 -483 2 -1065 -2 -581 -4 -1062 -4 -1068 1 -6 -19 -25 -44 -43
-43 -31 -47 -32 -68 -17 -12 9 -40 28 -62 43 -22 15 -123 87 -225 158 -102 72
-295 207 -430 300 -229 158 -511 356 -728 509 -51 36 -97 66 -103 66 -9 0
-184 -119 -474 -323 -110 -77 -403 -280 -485 -337 -41 -29 -196 -137 -344
-241 -256 -180 -271 -188 -290 -174 -12 9 -33 23 -48 33 l-28 17 0 1070 0
1070 57 45 c32 25 208 154 393 288 184 134 360 261 390 283 312 228 588 415
598 404 4 -4 9 -116 11 -250 l3 -242 -53 -42 c-62 -48 -239 -177 -414 -302
-134 -96 -568 -409 -574 -415 -8 -7 0 -909 7 -912 13 -4 232 -161 352 -251
131 -98 149 -110 171 -111 8 0 42 20 75 45 32 24 73 55 91 67 129 91 172 124
173 129 0 4 -6 9 -14 12 -28 11 -446 319 -461 340 -12 18 -15 61 -15 242 l0
221 108 79 c59 43 148 109 197 145 50 37 135 97 190 135 55 38 110 77 122 88
12 10 26 16 31 13 6 -4 8 -53 5 -123 -3 -65 -2 -182 2 -259 l7 -141 74 -54
c41 -30 91 -67 110 -83 l35 -29 32 30 c18 16 58 46 89 68 107 71 98 40 98 335
0 143 2 260 5 260 8 0 129 -84 335 -235 102 -74 213 -154 247 -177 l63 -43 0
-237 0 -236 -72 -54 c-40 -29 -83 -60 -95 -68 -12 -8 -65 -46 -119 -85 -53
-38 -118 -84 -143 -102 -25 -18 -46 -38 -46 -44 0 -11 200 -163 290 -220 39
-25 63 -19 133 36 100 78 184 139 315 230 l127 88 -2 451 -3 451 -217 155
c-336 241 -488 350 -554 399 -34 25 -107 79 -163 120 l-101 74 0 259 c0 143 3
258 8 256 4 -1 25 -16 47 -31z m-212 -2695 c66 -48 79 -57 212 -147 61 -41
162 -111 225 -156 63 -44 144 -100 180 -124 36 -25 83 -58 105 -75 22 -16 50
-35 63 -41 12 -7 22 -15 22 -19 0 -11 -62 -57 -305 -225 -309 -214 -516 -361
-544 -384 l-24 -21 -31 26 c-17 14 -94 69 -171 123 -121 85 -260 182 -450 315
-27 20 -89 63 -137 97 -48 34 -86 65 -83 69 3 4 75 57 161 116 86 60 173 120
193 134 20 14 113 78 206 141 94 64 199 137 235 162 36 26 71 46 78 47 7 0 36
-17 65 -38z"/>
<path d="M2176 2589 c-15 -12 -37 -38 -50 -58 -23 -36 -300 -724 -311 -772 -6
-23 -3 -27 26 -33 95 -19 124 -3 159 90 12 32 26 64 32 71 7 9 45 13 123 13
63 0 120 3 129 6 22 8 20 30 -9 92 l-24 52 -76 0 c-90 0 -90 -25 -2 198 33 84
64 151 70 149 9 -3 100 -221 228 -545 22 -56 47 -109 56 -117 24 -24 143 -15
143 12 0 15 -43 126 -195 503 -98 245 -134 315 -175 347 -25 20 -94 16 -124
-8z"/>
<path d="M7451 2600 c-18 -4 -45 -20 -60 -34 l-26 -26 0 -395 c0 -286 3 -397
12 -406 6 -6 31 -13 55 -16 80 -9 78 -18 78 353 0 178 3 324 8 324 8 0 43 -59
215 -365 150 -266 159 -280 197 -300 37 -19 103 -19 144 0 61 29 61 24 64 430
2 204 0 385 -3 403 -6 32 -6 32 -65 32 -32 0 -61 -4 -64 -8 -3 -5 -6 -158 -8
-340 -2 -215 -7 -331 -13 -329 -5 2 -46 68 -91 148 -314 561 -286 521 -369
531 -22 3 -55 2 -74 -2z"/>
<path d="M2914 2586 c-3 -7 -4 -164 -2 -347 3 -316 4 -336 25 -379 27 -57 66
-95 123 -116 49 -19 351 -32 435 -20 41 7 45 10 51 42 3 19 3 49 0 68 l-7 35
-209 3 c-197 3 -211 4 -230 24 -34 34 -40 84 -40 386 0 157 -3 293 -6 302 -8
21 -132 23 -140 2z"/>
<path d="M3780 2525 l0 -75 328 2 327 3 3 73 3 72 -331 0 -330 0 0 -75z"/>
<path d="M4685 2590 c-8 -13 -8 -629 1 -667 20 -93 53 -139 123 -171 53 -24
67 -26 251 -29 242 -5 244 -4 248 85 l3 62 -200 0 c-123 0 -209 4 -224 11 -54
25 -57 42 -58 366 -1 164 -4 309 -8 323 -6 23 -12 25 -68 28 -36 2 -64 -2 -68
-8z"/>
<path d="M5557 2593 c-3 -4 -6 -196 -8 -425 -3 -304 -1 -420 7 -428 14 -14
108 -19 121 -7 4 5 10 86 13 180 l5 172 78 3 c75 3 79 2 105 -26 15 -16 48
-66 72 -111 25 -45 66 -115 92 -156 46 -72 49 -75 86 -75 60 0 102 11 102 27
0 8 -7 28 -16 46 -32 63 -185 322 -207 350 -19 25 -20 30 -8 50 54 85 211 376
211 390 0 14 -11 17 -68 17 l-69 0 -31 -44 c-18 -24 -32 -47 -32 -50 0 -3 -13
-27 -28 -53 -16 -27 -48 -81 -72 -121 -49 -83 -64 -92 -149 -92 l-58 0 -9 178
-9 177 -62 3 c-34 2 -63 -1 -66 -5z"/>
<path d="M6474 2586 c-3 -7 -4 -40 -2 -72 l3 -59 321 -3 321 -2 7 58 c11 100
38 92 -325 92 -261 0 -321 -3 -325 -14z"/>
<path d="M3813 2216 c-33 -28 -42 -90 -32 -226 10 -141 54 -212 151 -244 66
-22 237 -31 381 -21 103 7 108 8 121 33 10 19 12 45 7 87 l-6 60 -228 5 -229
5 -24 28 c-20 23 -24 39 -24 88 l0 59 219 0 c120 0 233 3 250 6 l31 7 0 68 0
69 -294 0 -295 0 -28 -24z"/>
<path d="M6524 2230 c-42 -17 -55 -54 -55 -160 1 -204 41 -285 161 -326 48
-17 83 -19 268 -17 118 1 216 4 219 7 3 3 6 43 7 88 l1 83 -227 5 c-219 5
-228 6 -250 27 -17 18 -23 37 -26 88 l-4 65 248 2 249 3 3 73 3 72 -288 -1
c-158 0 -297 -4 -309 -9z"/>
</g>
</svg>
