<svg version="1.1" xmlns="http://www.w3.org/2000/svg" width="500" height="500">

<path d="M0 0 C1.53457953 2.14581036 2.47182948 3.86595758 3.5 6.25 C4.18306023 7.71899819 4.86670254 9.18772581 5.55078125 10.65625 C5.93186035 11.49414062 6.31293945 12.33203125 6.70556641 13.1953125 C8.15159554 16.32846653 9.65454389 19.43009431 11.16796875 22.53125 C17.15374304 34.79684848 23.01720544 47.11409033 28.75 59.5 C29.28391357 60.65081055 29.81782715 61.80162109 30.36791992 62.98730469 C32.88256002 68.41084079 35.383268 73.84001348 37.859375 79.28125 C38.73913256 81.18770808 39.61931508 83.09397013 40.5 85 C41.07766113 86.29067383 41.07766113 86.29067383 41.66699219 87.60742188 C44.15380249 92.9471986 46.58064632 96.29032316 52 99 C54.40842121 99.09093958 56.78839012 99.12267751 59.19677734 99.11010742 C60.73489381 99.11065035 62.27301027 99.11123738 63.81112671 99.11186218 C65.03814867 99.10971993 65.03814867 99.10971993 66.28995895 99.10753441 C70.6321708 99.10401139 74.97425371 99.12984044 79.31640625 99.15039062 C84.83751137 99.17464535 90.35824381 99.19051905 95.87939453 99.17504883 C100.34300457 99.16331028 104.80568785 99.18099634 109.26915359 99.21749306 C110.96177811 99.22604967 112.65449264 99.22411897 114.34708786 99.210989 C124.73352754 99.13651521 133.21521067 99.68595057 142 106 C146.46265964 110.58307343 149.95775111 115.59473984 150.0390625 122.1484375 C150.01972656 123.55996094 150.01972656 123.55996094 150 125 C135.66562815 125.09359702 121.33130395 125.16378798 106.99668884 125.20724869 C100.34028054 125.22810935 93.68413236 125.25639972 87.02783203 125.30175781 C80.60227441 125.34526877 74.17691429 125.36914858 67.7512207 125.37950897 C65.30164481 125.38689081 62.85207954 125.4013058 60.40258789 125.42292023 C56.96737439 125.45202288 53.53297351 125.45595298 50.09765625 125.45410156 C49.08848648 125.46848267 48.07931671 125.48286377 47.03956604 125.49768066 C39.22183869 125.45219025 33.79809851 123.82702134 28.23657227 118.20800781 C25.87945414 114.8270961 23.96948354 111.38714576 22.21484375 107.671875 C21.87662598 106.97309738 21.5384082 106.27431976 21.18994141 105.55436707 C20.09712062 103.29029853 19.01693457 101.02047712 17.9375 98.75 C17.18545482 97.18279481 16.43292791 95.6158207 15.67993164 94.04907227 C13.43777789 89.3733537 11.2151465 84.68856521 9 80 C8.6695166 79.30082458 8.3390332 78.60164917 7.99853516 77.88128662 C5.96441945 73.57302438 3.94540785 69.25804052 1.9375 64.9375 C1.1784436 63.30796387 1.1784436 63.30796387 0.40405273 61.64550781 C-0.05026123 60.65776367 -0.5045752 59.67001953 -0.97265625 58.65234375 C-1.36718994 57.79632568 -1.76172363 56.94030762 -2.16821289 56.05834961 C-3 54 -3 54 -3 52 C-3.66 52 -4.32 52 -5 52 C-5.52400391 53.77310547 -5.52400391 53.77310547 -6.05859375 55.58203125 C-8.39378462 62.57668538 -11.79982996 69.09252247 -15.0625 75.6875 C-16.42200122 78.45116029 -17.77693842 81.21702206 -19.12890625 83.984375 C-19.46310577 84.66805649 -19.7973053 85.35173798 -20.14163208 86.05613708 C-22.16469614 90.21697502 -24.10234238 94.4046533 -25.96484375 98.640625 C-26.39982178 99.62973877 -26.8347998 100.61885254 -27.28295898 101.63793945 C-28.06452253 103.43577078 -28.83459902 105.23866419 -29.59008789 107.04760742 C-32.66794368 114.11603327 -36.24888789 120.27462925 -43.44677734 123.58538818 C-48.61769188 125.45244052 -53.56033919 125.39932125 -59.00585938 125.34057617 C-60.07992035 125.34101425 -61.15398132 125.34145233 -62.2605896 125.34190369 C-65.7884987 125.33982416 -69.31592455 125.31653204 -72.84375 125.29296875 C-75.29854065 125.28736984 -77.75333467 125.28310113 -80.20812988 125.28010559 C-86.65256083 125.26868016 -93.09678726 125.23923253 -99.5411377 125.20599365 C-106.12375116 125.17524326 -112.70639783 125.16158963 -119.2890625 125.14648438 C-132.19279532 125.11436085 -145.09638676 125.06377314 -158 125 C-157.86295581 123.55514453 -157.71926181 122.11091873 -157.57275391 120.66699219 C-157.49344635 119.86267761 -157.41413879 119.05836304 -157.33242798 118.22967529 C-156.45414454 112.33881469 -152.08317646 107.52896756 -147.4375 104.0625 C-142.22291587 100.57360558 -137.48298527 99.70864006 -131.27563477 99.74462891 C-130.51401031 99.74100845 -129.75238586 99.737388 -128.96768188 99.73365784 C-127.31988787 99.72678378 -125.67207118 99.72425466 -124.02426338 99.72560501 C-121.41347565 99.72657285 -118.80309669 99.71359805 -116.19236755 99.69662476 C-108.7717503 99.65042755 -101.35117611 99.62574559 -93.93041992 99.61914062 C-89.38573843 99.61412084 -84.8414856 99.58984994 -80.29694939 99.55381393 C-78.56866977 99.54402918 -76.8403311 99.54167677 -75.11203194 99.54698563 C-72.6921429 99.55407126 -70.27352842 99.53674543 -67.85375977 99.51416016 C-66.78983757 99.52641884 -66.78983757 99.52641884 -65.704422 99.53892517 C-60.69576273 99.45599809 -57.84952136 98.15395071 -54 95 C-52.42247085 92.64986347 -51.17316609 90.51574365 -49.9375 88 C-49.56157715 87.26273682 -49.1856543 86.52547363 -48.79833984 85.76586914 C-44.55107415 77.32163656 -40.63099989 68.71498717 -36.68266296 60.1282959 C-31.87160083 49.67105672 -26.94036914 39.27165015 -22 28.875 C-21.58913147 28.00906219 -21.17826294 27.14312439 -20.75494385 26.25094604 C-18.49579413 21.49001731 -16.23012019 16.73234176 -13.95019531 11.98132324 C-13.09664923 10.20153052 -12.24727579 8.41973813 -11.3984375 6.63769531 C-10.73714844 5.27402832 -10.73714844 5.27402832 -10.0625 3.8828125 C-9.52302734 2.76350342 -9.52302734 2.76350342 -8.97265625 1.62158203 C-6.75542981 -2.07490844 -3.6524692 -1.12525566 0 0 Z " fill="#010101" transform="translate(254,141)" data-index="1" style="opacity: 1;"></path>
<path d="M0 0 C0.64402771 -0.00014603 1.28805542 -0.00029205 1.95159912 -0.0004425 C4.08348949 0.00025499 6.21529283 0.00803973 8.34716797 0.01586914 C9.82404533 0.0177339 11.30092331 0.01915753 12.77780151 0.02015686 C16.66747746 0.02397747 20.55711614 0.03380387 24.44677734 0.04486084 C28.41487117 0.05508476 32.38297102 0.05965658 36.35107422 0.06469727 C44.13885163 0.07542654 51.92659833 0.0924975 59.71435547 0.11352539 C59.82758051 7.9636278 58.64347277 13.70098266 53.22216797 19.78930664 C48.26426516 24.14352698 43.74586215 25.36611516 37.27172852 25.34057617 C35.99077805 25.34042511 34.70982758 25.34027405 33.39006042 25.34011841 C32.00206342 25.32990669 30.61406803 25.31947473 29.22607422 25.30883789 C27.7983266 25.30510489 26.37057642 25.30225927 24.94282532 25.30026245 C21.19616548 25.29264857 17.44966221 25.27301958 13.70306396 25.25085449 C9.87546913 25.23034753 6.04784885 25.22125039 2.22021484 25.21118164 C-5.28180944 25.18977139 -12.78370499 25.1556628 -20.28564453 25.11352539 C-20.17588438 23.37058716 -20.05203036 21.62853328 -19.92236328 19.88696289 C-19.8549292 18.91678223 -19.78749512 17.94660156 -19.71801758 16.94702148 C-18.8264361 11.1041674 -15.48829269 6.95284403 -11.09814453 3.17602539 C-6.98869666 0.16243028 -5.0734773 -0.00964539 0 0 Z " fill="#030303" transform="translate(140.28564453125,199.886474609375)" data-index="2" style="opacity: 1;"></path>
<path d="M0 0 C8.33669208 -0.11620313 16.67304192 -0.2048703 25.01034546 -0.25906086 C28.88235216 -0.2850789 32.753802 -0.32033152 36.62548828 -0.37719727 C40.36676451 -0.43179941 44.10750747 -0.46147907 47.84915161 -0.47438622 C49.27166125 -0.48357599 50.69414395 -0.50152147 52.11642456 -0.52865028 C60.27436818 -0.67797038 66.74129806 -0.70245177 73 5 C78.10818889 10.73841998 80.11532794 17.43029347 80 25 C71.64600479 25.09289648 63.29222729 25.16386382 54.93784237 25.20724869 C51.05806604 25.2280769 47.17864446 25.25630607 43.29907227 25.30175781 C39.55133669 25.34538759 35.8039412 25.36917293 32.05597115 25.37950897 C30.62987481 25.38686982 29.20379597 25.40124386 27.77784538 25.42292023 C18.72463732 25.55500207 12.98383843 25.42783211 6.07421875 19.2890625 C0.8063433 12.96761196 -0.08270002 8.06325169 0 0 Z " fill="#030303" transform="translate(302,200)" data-index="3" style="opacity: 1;"></path>
<path d="M0 0 C3.63 0 7.26 0 11 0 C14.34385596 7.14085128 17.02251426 14.45063377 19.57421875 21.90429688 C20.2565878 23.89421125 20.94824427 25.88073743 21.640625 27.8671875 C22.07868084 29.13782934 22.51620083 30.40865608 22.953125 31.6796875 C23.34661133 32.82163574 23.74009766 33.96358398 24.14550781 35.14013672 C25 38 25 38 25 41 C22.03 41 19.06 41 16 41 C15.34 38.03 14.68 35.06 14 32 C8.72 32 3.44 32 -2 32 C-2.66 34.97 -3.32 37.94 -4 41 C-6.97 41 -9.94 41 -13 41 C-12.40834761 35.63221067 -11.11925761 30.94372784 -9.27734375 25.87890625 C-9.01240616 25.13414536 -8.74746857 24.38938446 -8.47450256 23.62205505 C-7.63500214 21.26661164 -6.78642081 18.91456247 -5.9375 16.5625 C-5.36332676 14.95659658 -4.78975301 13.35047869 -4.21679688 11.74414062 C-2.81811704 7.82691322 -1.41128906 3.91270133 0 0 Z " fill="#090909" transform="translate(124,288)" data-index="4"></path>
<path d="M0 0 C8 0 8 0 10.05395508 1.68066406 C10.53759521 2.45120117 11.02123535 3.22173828 11.51953125 4.015625 C12.06673828 4.85480469 12.61394531 5.69398438 13.17773438 6.55859375 C13.71720703 7.44675781 14.25667969 8.33492188 14.8125 9.25 C15.92309661 10.98442653 17.03377099 12.71880327 18.14453125 14.453125 C18.62253174 15.22817383 19.10053223 16.00322266 19.59301758 16.80175781 C20.95963614 18.93693628 22.47895167 20.97193556 24 23 C24.33 15.41 24.66 7.82 25 0 C27.64 0 30.28 0 33 0 C33 13.2 33 26.4 33 40 C26 40 26 40 24.29077148 38.76586914 C23.90477783 38.19473389 23.51878418 37.62359863 23.12109375 37.03515625 C22.67443359 36.39900391 22.22777344 35.76285156 21.76757812 35.10742188 C21.32865234 34.43259766 20.88972656 33.75777344 20.4375 33.0625 C19.77331055 32.1024707 19.77331055 32.1024707 19.09570312 31.12304688 C17.70449122 29.09964896 16.35274159 27.04931692 15 25 C13.02 22.03 11.04 19.06 9 16 C8.67 23.92 8.34 31.84 8 40 C5.36 40 2.72 40 0 40 C0 26.8 0 13.6 0 0 Z " fill="#020202" transform="translate(354,289)" data-index="5" style="opacity: 1;"></path>
<path d="M0 0 C2.97 0 5.94 0 9 0 C9.33 5.61 9.66 11.22 10 17 C11.34191406 15.15921875 11.34191406 15.15921875 12.7109375 13.28125 C13.93064907 11.68624256 15.1520956 10.0925608 16.375 8.5 C17.25091797 7.28376953 17.25091797 7.28376953 18.14453125 6.04296875 C22.66206125 0.26247338 22.66206125 0.26247338 26.70800781 -0.53125 C29.19773119 -0.53125 31.54193622 -0.38268508 34 0 C32.73754545 2.73414959 31.41003472 4.85442548 29.36328125 7.05859375 C28.86892578 7.60966797 28.37457031 8.16074219 27.86523438 8.72851562 C26.82669522 9.87156186 25.77971015 11.00698878 24.72460938 12.13476562 C23.02112936 13.98894055 23.02112936 13.98894055 21 17 C21.29772923 20.80121399 22.5830383 23.28739935 24.72265625 26.390625 C25.26083984 27.18210937 25.79902344 27.97359375 26.35351562 28.7890625 C26.91748047 29.60117187 27.48144531 30.41328125 28.0625 31.25 C29.18019531 32.87896797 30.29618014 34.50911138 31.41015625 36.140625 C31.90652588 36.85766602 32.40289551 37.57470703 32.91430664 38.31347656 C34 40 34 40 34 41 C30.3305048 42.05400394 27.6372465 42.25337548 24 41 C19.7779515 36.72836368 16.91112969 31.20287009 14 26 C10.88214887 26.64644661 10.88214887 26.64644661 10 29 C9.77141886 31.0374763 9.58975722 33.08040303 9.4375 35.125 C9.35371094 36.22070312 9.26992188 37.31640625 9.18359375 38.4453125 C9.12300781 39.28835938 9.06242187 40.13140625 9 41 C6.03 41 3.06 41 0 41 C0 27.47 0 13.94 0 0 Z " fill="#0C0C0C" transform="translate(271,288)" data-index="6"></path>
<path d="M0 0 C9.24 0 18.48 0 28 0 C28 2.31 28 4.62 28 7 C21.73 7 15.46 7 9 7 C9 10.3 9 13.6 9 17 C14.94 17 20.88 17 27 17 C27 19.31 27 21.62 27 24 C21.06 24 15.12 24 9 24 C9 27.3 9 30.6 9 34 C15.27 34 21.54 34 28 34 C28 36.31 28 38.62 28 41 C18.76 41 9.52 41 0 41 C0 27.47 0 13.94 0 0 Z " fill="#0E0E0E" transform="translate(314,288)" data-index="7" style="opacity: 1;"></path>
<path d="M0 0 C9.24 0 18.48 0 28 0 C28 2.31 28 4.62 28 7 C21.73 7 15.46 7 9 7 C9 10.3 9 13.6 9 17 C14.94 17 20.88 17 27 17 C27 19.31 27 21.62 27 24 C21.06 24 15.12 24 9 24 C9 27.3 9 30.6 9 34 C15.27 34 21.54 34 28 34 C28 36.31 28 38.62 28 41 C18.76 41 9.52 41 0 41 C0 27.47 0 13.94 0 0 Z " fill="#0E0E0E" transform="translate(195,288)" data-index="8"></path>
<path d="M0 0 C2.97 0 5.94 0 9 0 C9 11.22 9 22.44 9 34 C14.61 34 20.22 34 26 34 C26 36.31 26 38.62 26 41 C17.42 41 8.84 41 0 41 C0 27.47 0 13.94 0 0 Z " fill="#090909" transform="translate(159,288)" data-index="9"></path>
<path d="M0 0 C2.64 0 5.28 0 8 0 C8 10.89 8 21.78 8 33 C13.61 33 19.22 33 25 33 C25 35.31 25 37.62 25 40 C16.75 40 8.5 40 0 40 C0 26.8 0 13.6 0 0 Z " fill="#000000" transform="translate(235,289)" data-index="10"></path>
<path d="M0 0 C0.66 0 1.32 0 2 0 C2.6700834 2.12392506 3.33596797 4.24917524 4 6.375 C4.37125 7.55835938 4.7425 8.74171875 5.125 9.9609375 C6 13 6 13 6 15 C2.7 15 -0.6 15 -4 15 C-2.91266548 9.87399439 -1.77362508 4.94081272 0 0 Z " fill="#EBEBEB" transform="translate(129,298)" data-index="11"></path>
</svg>